<svg width="29" height="28" viewBox="0 0 29 28" fill="none" xmlns="http://www.w3.org/2000/svg">
<g id="Vector" filter="url(#filter0_d_5_31)">
<path fill-rule="evenodd" clip-rule="evenodd" d="M17.668 4.52133C18.5 3.54533 19.06 2.18533 18.908 0.833328C17.708 0.879995 16.2587 1.608 15.3973 2.584C14.628 3.448 13.952 4.832 14.1347 6.15733C15.4707 6.25866 16.836 5.49866 17.668 4.52133ZM24.1667 17.416C24.14 17.496 23.6507 19.056 22.4667 20.664C21.4427 22.056 20.38 23.4413 18.7067 23.4707C17.0627 23.4973 16.5333 22.564 14.6533 22.564C12.7733 22.564 12.1867 23.4413 10.628 23.4973C9.01466 23.5547 7.78267 21.9947 6.75066 20.608C4.64133 17.772 3.02933 12.596 5.19466 9.10133C5.73459 8.23722 6.48267 7.52237 7.37041 7.02225C8.25815 6.52212 9.25717 6.2527 10.276 6.23866C11.8627 6.212 13.36 7.23199 14.3293 7.23199C15.3 7.23199 17.1187 6.00533 19.032 6.18533C19.832 6.21599 22.0813 6.48533 23.5253 8.45066C23.408 8.51733 20.8427 9.90533 20.8693 12.7947C20.904 16.252 24.1307 17.4013 24.1667 17.416Z" fill="black" fill-opacity="0.99" shape-rendering="crispEdges"/>
<path d="M19.032 6.18533C17.862 6.07526 16.7275 6.49116 15.8005 6.83094C15.2116 7.04683 14.7065 7.23199 14.3293 7.23199C13.9094 7.23199 13.3903 7.04055 12.8079 6.82571C12.0458 6.54465 11.1753 6.22355 10.276 6.23866C9.25717 6.2527 8.25815 6.52212 7.37041 7.02225C6.48267 7.52237 5.73459 8.23722 5.19466 9.10133L19.032 6.18533ZM19.032 6.18533C19.7752 6.21382 21.7691 6.44827 23.2063 8.05705L19.032 6.18533ZM5.61922 9.36543C4.62569 10.9695 4.47873 12.9959 4.86089 15.0084C5.24256 17.0183 6.14162 18.9513 7.15186 20.3096C7.67026 21.0061 8.20705 21.701 8.79969 22.2171C9.38962 22.7308 9.98117 23.02 10.6102 22.9976C11.2462 22.9748 11.6878 22.8005 12.2242 22.5889C12.2615 22.5742 12.2992 22.5593 12.3374 22.5442C12.9362 22.3092 13.6213 22.064 14.6533 22.064C15.6916 22.064 16.3664 22.3271 16.9548 22.5633L16.9799 22.5734C17.5406 22.7986 17.9974 22.9821 18.6985 22.9707L5.61922 9.36543ZM5.61922 9.36543C6.11478 8.57264 6.80126 7.91678 7.61583 7.45787C8.43069 6.9988 9.3477 6.7515 10.2829 6.73862L10.2844 6.73859C10.9774 6.72694 11.6719 6.94446 12.3637 7.19536C12.4498 7.22661 12.537 7.25878 12.6245 7.29104C12.8745 7.38327 13.1264 7.47616 13.3596 7.54983C13.6743 7.64921 14.0087 7.73199 14.3293 7.73199C14.6596 7.73199 15.0222 7.63085 15.3625 7.51753C15.5491 7.45541 15.7664 7.37589 15.9874 7.29505C16.1575 7.2328 16.3298 7.16977 16.4918 7.1133C17.2948 6.83337 18.1417 6.60378 18.9852 6.68313L18.999 6.68443L19.0128 6.68496C19.7048 6.71148 21.4845 6.92911 22.7817 8.33344C22.7762 8.33739 22.7706 8.34137 22.765 8.34539C22.487 8.54544 22.1284 8.83801 21.7737 9.22746C21.0633 10.0073 20.3545 11.1931 20.3694 12.7993L20.3694 12.7997C20.3885 14.7041 21.2935 15.9812 22.1862 16.7708C22.6301 17.1634 23.0724 17.4378 23.4064 17.6154C23.4527 17.64 23.4971 17.6628 23.5391 17.6839C23.3191 18.249 22.8518 19.2977 22.064 20.3675L22.0639 20.3677C21.5473 21.0699 21.0566 21.719 20.5021 22.201C19.9589 22.6732 19.3837 22.9585 18.6986 22.9707L5.61922 9.36543ZM17.2875 4.19696L17.2873 4.19722C16.6239 4.97642 15.608 5.57548 14.6052 5.6569C14.6239 4.65327 15.1478 3.61606 15.7708 2.9165L15.7722 2.91484C16.4339 2.16504 17.4867 1.57926 18.4311 1.39319C18.3995 2.41335 17.9441 3.42665 17.2875 4.19696ZM23.102 8.7192C22.3449 9.25309 20.8489 10.5847 20.8693 12.7947C20.9034 16.1901 24.0162 17.3594 24.1617 17.4141L23.102 8.7192Z" stroke="black" shape-rendering="crispEdges"/>
</g>
<defs>
<filter id="filter0_d_5_31" x="0.166924" y="0.833328" width="27.9997" height="30.6655" filterUnits="userSpaceOnUse" color-interpolation-filters="sRGB">
<feFlood flood-opacity="0" result="BackgroundImageFix"/>
<feColorMatrix in="SourceAlpha" type="matrix" values="0 0 0 0 0 0 0 0 0 0 0 0 0 0 0 0 0 0 127 0" result="hardAlpha"/>
<feOffset dy="4"/>
<feGaussianBlur stdDeviation="2"/>
<feComposite in2="hardAlpha" operator="out"/>
<feColorMatrix type="matrix" values="0 0 0 0 0 0 0 0 0 0 0 0 0 0 0 0 0 0 0.25 0"/>
<feBlend mode="normal" in2="BackgroundImageFix" result="effect1_dropShadow_5_31"/>
<feBlend mode="normal" in="SourceGraphic" in2="effect1_dropShadow_5_31" result="shape"/>
</filter>
</defs>
</svg>
