<svg width="102" height="98" viewBox="0 0 102 98" fill="none" xmlns="http://www.w3.org/2000/svg">
<g clip-path="url(#clip0_7_376)">
<path d="M51.6908 43.6789C51.2722 43.3773 50.9224 42.9778 50.7009 42.516L38.8966 17.9119C38.5831 17.2587 38.5745 16.5738 38.8722 16.0415C39.17 15.5093 39.7447 15.1845 40.4396 15.155L49.8153 14.7547C50.7087 14.7165 51.666 15.1731 52.2794 15.9239L72.085 40.1858C72.6425 40.8691 72.8379 41.6984 72.5991 42.3778C72.3609 43.0568 71.7237 43.4913 70.9144 43.5258L53.5372 44.2682C52.8965 44.2956 52.236 44.0716 51.6908 43.6789Z" fill="#CFD8E2"/>
<path d="M58.0005 82.2136C57.9372 82.168 57.8754 82.1201 57.8152 82.0701C57.2221 81.5753 56.8423 80.9064 56.7784 80.2436L54.3501 55.2391C54.246 54.1586 54.9924 53.3376 56.1253 53.2892L73.5016 52.5452C74.3098 52.509 75.18 52.8806 75.7962 53.5231C76.4139 54.1666 76.6937 54.9915 76.537 55.7053L70.9634 81.0524C70.7909 81.8405 70.1151 82.3632 69.2217 82.4014L59.8474 82.8026C59.2233 82.8301 58.5595 82.6164 58.0005 82.2136Z" fill="#BAC8D4"/>
<path d="M4.37444 46.3703C4.0173 45.1254 4.77658 44.0704 6.07125 44.0152L20.1336 43.414C21.4284 43.3586 22.767 44.3237 23.1242 45.5686C23.4813 46.8135 22.7221 47.8685 21.4274 47.9237L7.36502 48.5249C6.07048 48.5803 4.73159 47.6152 4.37444 46.3703Z" fill="white"/>
<path d="M7.79734 55.398C7.45806 54.2049 8.1874 53.1916 9.42722 53.1358L22.8938 52.5288C24.1337 52.4729 25.4135 53.3955 25.7528 54.5886C26.0921 55.7817 25.3627 56.795 24.1229 56.8508L10.6563 57.4579C9.4165 57.5138 8.13681 56.5911 7.79734 55.398Z" fill="white"/>
<path d="M44.3405 64.17L46.6887 58.2413L91.0632 56.3443C93.5633 56.2374 95.6551 55.2045 96.929 53.4153C98.2229 51.6405 98.5405 49.329 97.8504 46.924C97.1603 44.5189 95.5405 42.2901 93.272 40.6677C91.0148 39.0294 88.3882 38.1983 85.8882 38.3052L41.5135 40.202L35.8617 34.6154C35.2431 34.0029 34.4165 33.6578 33.6197 33.6919L24.2449 34.0927C23.495 34.1248 22.8909 34.5006 22.6216 35.1055C22.3367 35.7111 22.4474 36.4826 22.8757 37.1489L30.9918 49.7821L30.233 62.7947C30.1928 63.4811 30.5221 64.2431 31.1434 64.8101C31.2317 64.8975 31.3512 64.9838 31.4555 65.0707C32.0138 65.473 32.6765 65.6881 33.3014 65.6614L42.6762 65.2606C43.4575 65.2272 44.0839 64.8199 44.3405 64.17Z" fill="#E2E7EC"/>
<path d="M43.861 66.8531L33.8405 66.8853C33.1724 66.8875 32.4541 66.6359 31.84 66.1933C31.725 66.0983 31.5935 66.0035 31.4951 65.9085C30.8066 65.2916 30.4227 64.4831 30.4375 63.7687L30.7143 50.2257L96.8676 49.4401C97.7054 51.9777 102.771 54.9313 101.458 56.7294C100.168 58.5435 97.9711 59.5348 95.2988 59.5434L47.8678 59.6961L45.5977 65.784C45.3499 66.4515 44.696 66.8505 43.861 66.8531Z" fill="#CCD5E0"/>
</g>
<defs>
<clipPath id="clip0_7_376">
<rect width="80" height="63" fill="white" transform="translate(36.8276) rotate(35.7723)"/>
</clipPath>
</defs>
</svg>
