<svg width="49" height="33" viewBox="0 0 49 33" fill="none" xmlns="http://www.w3.org/2000/svg">
<g id="SVG" clip-path="url(#clip0_5_37)">
<path id="Vector" d="M40.1187 16.7994C40.1187 15.4883 40.0123 14.5316 39.7821 13.5395H24.8115V19.4568H33.5989C33.4218 20.9274 32.4651 23.1419 30.339 24.6301L30.3092 24.8282L35.0427 28.4951L35.3706 28.5278C38.3824 25.7463 40.1187 21.6537 40.1187 16.7994Z" fill="#4285F4"/>
<path id="Vector_2" d="M24.8114 32.3901C29.1165 32.3901 32.7307 30.9727 35.3706 28.5279L30.339 24.6301C28.9926 25.5691 27.1854 26.2246 24.8114 26.2246C20.5949 26.2246 17.0161 23.4432 15.7404 19.5986L15.5534 19.6145L10.6315 23.4236L10.5672 23.6025C13.1892 28.8112 18.5751 32.3901 24.8114 32.3901Z" fill="#34A853"/>
<path id="Vector_3" d="M15.7404 19.5986C15.4038 18.6065 15.209 17.5434 15.209 16.445C15.209 15.3465 15.4038 14.2836 15.7227 13.2915L15.7138 13.0802L10.7302 9.20987L10.5672 9.28743C9.48652 11.4489 8.86642 13.8761 8.86642 16.445C8.86642 19.014 9.48652 21.4411 10.5672 23.6025L15.7404 19.5986Z" fill="#FBBC05"/>
<path id="Vector_4" d="M24.8114 6.66537C27.8055 6.66537 29.8252 7.95869 30.9768 9.03948L35.4768 4.64571C32.7131 2.07679 29.1165 0.5 24.8114 0.5C18.5751 0.5 13.1892 4.07875 10.5672 9.28742L15.7227 13.2915C17.0161 9.44693 20.5949 6.66537 24.8114 6.66537Z" fill="#EB4335"/>
</g>
<defs>
<clipPath id="clip0_5_37">
<rect width="48" height="32" fill="white" transform="translate(0.5 0.5)"/>
</clipPath>
</defs>
</svg>
